HIERARCHY
ROOT Hips
{
	OFFSET -3.958830 18.904000 13.208200
	CHANNELS 6 Xposition Yposition Zposition Zrotation Yrotation Xrotation 
	JOINT LHipJoint
	{
		OFFSET 0.000000 0.000000 0.000000
		CHANNELS 3 Zrotation Yrotation Xrotation
		JOINT LeftUpLeg
		{
			OFFSET 1.800000 -1.400000 0.085000
			CHANNELS 3 Zrotation Yrotation Xrotation
			JOINT LeftLeg
			{
				OFFSET 2.215000 -6.000000 0.000000
				CHANNELS 3 Zrotation Yrotation Xrotation
				JOINT LeftFoot
				{
					OFFSET 2.500000 -6.900000 0.000000
					CHANNELS 3 Zrotation Yrotation Xrotation
					JOINT LeftToeBase
					{
						OFFSET 0.200000 -0.500000 1.950000
						CHANNELS 3 Zrotation Yrotation Xrotation
						End Site
						{
							OFFSET 0.000000 0.000000 0.000000
						}
					}
				}
			}
		}
	}
	JOINT RHipJoint
	{
		OFFSET 0.000000 0.000000 0.000000
		CHANNELS 3 Zrotation Yrotation Xrotation
		JOINT RightUpLeg
		{
			OFFSET -1.800000 -1.400000 0.085000
			CHANNELS 3 Zrotation Yrotation Xrotation
			JOINT RightLeg
			{
				OFFSET -2.215000 -6.000000 0.000000
				CHANNELS 3 Zrotation Yrotation Xrotation
				JOINT RightFoot
				{
					OFFSET -2.500000 -6.900000 0.000000
					CHANNELS 3 Zrotation Yrotation Xrotation
					JOINT RightToeBase
					{
						OFFSET -0.200000 -0.500000 1.950000
						CHANNELS 3 Zrotation Yrotation Xrotation
						End Site
						{
							OFFSET 0.000000 0.000000 0.000000
						}
					}
				}
			}
		}
	}
	JOINT LowerBack
	{
		OFFSET 0.000000 0.000000 0.000000
		CHANNELS 3 Zrotation Yrotation Xrotation
		JOINT Spine
		{
			OFFSET -0.087000 1.940000 -0.288900
			CHANNELS 3 Zrotation Yrotation Xrotation
			JOINT Spine1
			{
				OFFSET 0.000000 1.950000 0.060000
				CHANNELS 3 Zrotation Yrotation Xrotation
				JOINT Neck
				{
					OFFSET 0.000000 0.000000 0.000000
					CHANNELS 3 Zrotation Yrotation Xrotation
					JOINT Neck1
					{
						OFFSET 0.000000 1.600000 0.340000
						CHANNELS 3 Zrotation Yrotation Xrotation
						JOINT Head
						{
							OFFSET 0.000000 1.667000 -0.240000
							CHANNELS 3 Zrotation Yrotation Xrotation
							End Site
							{
								OFFSET 0.000000 0.000000 0.000000
							}
						}
					}
				}
				JOINT LeftShoulder
				{
					OFFSET 0.000000 0.000000 0.000000
					CHANNELS 3 Zrotation Yrotation Xrotation
					JOINT LeftArm
					{
						OFFSET 2.700000 1.550000 -0.730000
						CHANNELS 3 Zrotation Yrotation Xrotation
						JOINT LeftForeArm
						{
							OFFSET 5.450000 0.000000 0.000000
							CHANNELS 3 Zrotation Yrotation Xrotation
							JOINT LeftHand
							{
								OFFSET 3.450000 0.000000 0.000000
								CHANNELS 3 Zrotation Yrotation Xrotation
								JOINT LeftHandIndex1
								{
									OFFSET 0.750000 0.000000 0.000000
									CHANNELS 3 Zrotation Yrotation Xrotation
									End Site
									{
										OFFSET 0.000000 0.000000 0.000000
									}
								}
							}
						}
					}
				}
				JOINT RightShoulder
				{
					OFFSET 0.000000 0.000000 0.000000
					CHANNELS 3 Zrotation Yrotation Xrotation
					JOINT RightArm
					{
						OFFSET -2.700000 1.550000 -0.730000
						CHANNELS 3 Zrotation Yrotation Xrotation
						JOINT RightForeArm
						{
							OFFSET -5.450000 0.000000 0.000000
							CHANNELS 3 Zrotation Yrotation Xrotation
							JOINT RightHand
							{
								OFFSET -3.450000 0.000000 0.000000
								CHANNELS 3 Zrotation Yrotation Xrotation
								JOINT RightHandIndex1
								{
									OFFSET -0.750000 0.000000 0.000000
									CHANNELS 3 Zrotation Yrotation Xrotation
									End Site
									{
										OFFSET 0.000000 0.000000 0.000000
									}
								}
							}
						}
					}
				}
			}
		}
	}
}
MOTION
Frames: 12
Frame Time: 0.016667
-0.572250 17.198560 -0.599970 173.187127 59.369884 170.187654 -15.200753 11.558060 5.126434 3.433128 -8.016881 -36.544536 -6.025363 15.898977 57.662636 1.301881 10.706387 0.751312 0.632230 0.363000 0.696830 18.165519 -11.801710 2.448441 -3.101146 3.184479 -14.588635 -2.227702 -4.567417 36.179871 -0.574513 -4.867259 2.538229 0.069380 -0.357120 0.149650 -4.568945 2.082823 -8.243630 11.162124 3.449062 15.551951 -5.796602 5.914753 4.337766 3.814648 6.241684 -13.987564 11.769543 -17.066380 46.640290 1.261990 -15.041500 -6.931050 -22.985045 -17.635525 8.593925 -49.919588 1.942434 -7.352286 -13.725525 -16.431256 -0.124334 -3.230623 3.151282 0.362360 -0.296040 0.287970 0.066140 14.656101 19.346350 7.283588 48.820191 15.642868 -0.665948 0.514757 18.327405 -0.611036 2.632549 -1.432144 0.198400 -0.126180 -0.373280 -0.103220 
-0.584930 17.189370 -0.625560 174.377730 55.659151 171.665030 -15.134079 11.516069 5.082582 3.921935 -8.121777 -35.419482 -8.095610 16.419630 55.744679 1.280148 10.585870 0.793039 0.620530 0.353460 0.687150 18.245164 -11.821083 2.421436 -2.698961 3.154961 -15.068968 -3.716168 -4.079460 37.132474 -0.580344 -4.945880 2.515464 0.069060 -0.348110 0.149580 -4.492652 2.100880 -8.193125 11.028409 3.308702 15.019402 -5.414947 5.552864 4.125091 3.774243 6.909201 -13.773317 12.953158 -18.541217 44.968694 0.880680 -15.881160 -6.659540 -23.213248 -17.468655 8.379529 -49.822760 1.286978 -7.085407 -14.662835 -16.106481 -0.032529 -3.255067 3.154153 0.344460 -0.280270 0.273000 0.063290 14.935887 18.460402 7.266786 49.393117 14.203764 -0.849793 1.031245 17.523314 -0.544943 2.637771 -1.435132 0.196010 -0.126600 -0.367050 -0.101280 
-0.597380 17.180460 -0.651130 175.512757 52.167686 173.034980 -15.076644 11.482198 5.023650 4.580337 -8.078631 -34.249176 -10.312181 16.919759 53.522983 1.253325 10.439597 0.839514 0.616360 0.349730 0.686930 18.315062 -11.824264 2.414850 -2.131490 3.173184 -15.532925 -5.070081 -3.608395 38.036456 -0.597465 -5.028614 2.485083 0.070560 -0.343950 0.156520 -4.450857 2.123043 -8.148778 11.142173 3.125842 14.530794 -5.143943 5.205807 3.907755 3.767912 7.549607 -13.563488 14.139499 -19.930902 43.308624 0.624440 -16.628290 -6.658100 -23.476133 -17.291488 8.164514 -49.699658 0.662509 -6.785114 -15.616076 -15.650910 0.043228 -3.277850 3.159426 0.331290 -0.268940 0.266970 0.059940 15.167263 17.585360 7.229708 50.087614 12.886777 -1.026821 1.374397 16.683977 -0.504262 2.644916 -1.438873 0.198400 -0.129220 -0.363730 -0.099860 
-0.609420 17.172830 -0.679910 176.527445 48.737143 174.277034 -15.022630 11.462865 4.934303 5.162185 -7.926027 -32.884629 -12.482334 17.185553 50.849341 1.205957 10.191293 0.920773 0.613880 0.348310 0.692530 18.379212 -11.828464 2.428636 -1.409327 3.217946 -16.013582 -6.450596 -3.098870 38.960306 -0.621382 -5.122289 2.453515 0.073690 -0.341150 0.158280 -4.438143 2.160391 -8.095865 11.397896 2.913715 13.927154 -4.960119 4.832907 3.767715 3.796724 8.177175 -13.437917 15.392499 -21.324597 41.696775 0.195380 -17.291480 -6.560290 -23.597221 -17.235571 8.011264 -49.789887 0.018371 -6.469248 -16.319851 -15.023873 0.079800 -3.298349 3.155794 0.319920 -0.258810 0.262800 0.058560 15.177077 16.826302 7.261068 51.132278 11.603538 -1.219301 1.410481 15.832657 -0.509501 2.651255 -1.443461 0.197250 -0.126400 -0.365560 -0.099950 
-0.623460 17.165340 -0.709940 177.413686 45.378000 175.433042 -14.979223 11.437397 4.837602 5.659745 -7.750719 -31.589099 -14.465758 17.293123 48.186643 1.156628 9.927151 1.007936 0.611360 0.343080 0.701570 18.435977 -11.813816 2.458082 -0.660374 3.343997 -16.705448 -7.641696 -2.662606 40.040381 -0.650898 -5.249676 2.407336 0.074130 -0.340200 0.166150 -4.435084 2.201062 -8.050262 11.682637 2.720220 13.261279 -4.786070 4.475261 3.688783 3.838527 8.770247 -13.417216 16.629851 -22.701093 39.975782 -0.486530 -17.878630 -6.246100 -23.563637 -17.367992 7.927730 -50.218825 -0.657847 -6.162704 -16.557189 -14.222142 0.048727 -3.323190 3.154417 0.307470 -0.245970 0.259160 0.056140 14.986458 16.289276 7.407872 52.373403 10.252530 -1.512448 1.294447 15.109264 -0.538501 2.653632 -1.455625 0.198430 -0.130430 -0.367840 -0.101820 
-0.639350 17.157060 -0.741120 178.224095 42.024447 176.549373 -14.941659 11.405557 4.735789 6.057591 -7.585542 -30.388776 -16.169138 17.230612 45.638777 1.104088 9.657068 1.102135 0.596810 0.323790 0.695610 18.490112 -11.785771 2.497619 0.087717 3.502994 -17.556482 -8.600033 -2.327997 41.162276 -0.673652 -5.399265 2.357424 0.070110 -0.326920 0.171320 -4.453084 2.243262 -8.007008 12.028061 2.450098 12.508673 -4.549376 4.026269 3.676132 3.817736 9.223260 -13.342682 17.576378 -23.835249 38.157368 -1.094080 -18.460990 -5.606490 -23.276220 -17.435913 7.838732 -51.145851 -1.334659 -5.932646 -16.463896 -13.419995 -0.021101 -3.356908 3.152299 0.289640 -0.225720 0.242900 0.055090 14.672245 15.744037 7.511935 53.685265 9.040010 -1.826421 1.100480 14.420439 -0.573171 2.654100 -1.470253 0.192740 -0.133250 -0.362640 -0.101680 
-0.659820 17.150410 -0.770150 178.845113 38.751587 177.418380 -14.909588 11.391012 4.625647 6.287496 -7.400641 -29.115526 -17.652812 17.030431 43.129294 1.046047 9.365719 1.205456 0.580820 0.302120 0.687360 18.535359 -11.749624 2.550290 0.743726 3.722979 -18.601198 -9.470893 -2.037861 42.480964 -0.703385 -5.577850 2.298234 0.064440 -0.313770 0.173220 -4.470549 2.257812 -7.976983 12.337330 2.103599 11.882138 -4.375476 3.535414 3.693298 3.784396 9.555340 -13.346840 18.306951 -24.859163 36.787172 -1.665690 -19.064050 -4.969740 -22.845762 -17.604435 7.806950 -52.282944 -1.946126 -5.783131 -16.116162 -12.723225 -0.107975 -3.383803 3.144570 0.279170 -0.209270 0.228480 0.055430 14.243615 15.393748 7.666017 55.015951 7.967319 -2.169682 0.950995 13.850604 -0.595462 2.652120 -1.479826 0.183300 -0.131830 -0.356610 -0.102320 
-0.681080 17.143440 -0.800370 179.398392 35.653788 178.152515 -14.882726 11.380736 4.506060 6.487044 -7.162047 -27.822723 -18.928621 16.769819 40.752062 0.990890 9.075395 1.305313 0.573570 0.295200 0.686050 18.575031 -11.705084 2.614213 1.253768 4.026538 -19.836928 -10.156426 -1.854385 44.178418 -0.749511 -5.814622 2.216590 0.064720 -0.307620 0.175100 -4.497336 2.267719 -7.950752 12.707324 1.707656 11.340271 -4.302221 3.020767 3.684534 3.808996 9.877244 -13.297949 19.076029 -25.757324 35.462533 -2.128020 -19.472680 -4.680180 -22.402413 -17.643819 7.745106 -53.391344 -2.460248 -5.653324 -15.738791 -11.936983 -0.200620 -3.406682 3.136761 0.270070 -0.197410 0.222150 0.055300 13.696512 14.929886 7.718953 56.459322 7.143630 -2.443773 0.786057 13.182763 -0.608278 2.653560 -1.487475 0.179110 -0.129890 -0.355250 -0.102660 
-0.700440 17.137350 -0.828730 179.738072 32.795437 178.662111 -14.872471 11.379430 4.386383 6.639398 -6.876692 -26.517397 -20.142704 16.530564 38.471730 0.942345 8.807584 1.392702 0.573840 0.295640 0.690570 18.598390 -11.638397 2.687173 1.515457 4.453165 -21.295834 -10.753249 -1.734390 46.431261 -0.816538 -6.138950 2.102113 0.066680 -0.310480 0.180450 -4.490647 2.235388 -7.940357 12.786557 1.387442 10.988805 -4.132582 2.586411 3.577796 3.821642 10.176545 -13.252812 19.803638 -26.632098 34.342611 -2.442250 -19.888030 -4.655140 -22.118750 -17.636249 7.658455 -54.345574 -2.832821 -5.530262 -15.197002 -10.995851 -0.312043 -3.424745 3.131788 0.265780 -0.191610 0.222440 0.052290 13.358588 14.497306 7.739200 57.660892 6.330286 -2.754240 0.746838 12.532706 -0.599345 2.655653 -1.492298 0.181140 -0.133040 -0.354980 -0.104790 
-0.719280 17.137300 -0.855170 -179.997111 30.347508 178.963805 -14.863674 11.411713 4.259235 6.799848 -6.467789 -25.003186 -21.210135 16.256516 36.200575 0.907680 8.519210 1.483942 0.584160 0.309190 0.702220 18.610567 -11.573526 2.780906 1.632730 4.937898 -22.759239 -11.321687 -1.595649 48.707610 -0.895374 -6.463335 1.990623 0.066250 -0.330610 0.181970 -4.472269 2.170882 -7.958000 12.829356 1.093317 10.940389 -4.014288 2.255709 3.311299 3.802449 10.400224 -13.373324 20.464429 -27.341047 34.008099 -2.444570 -20.277250 -4.813170 -22.176173 -17.767460 7.685360 -55.039511 -2.806642 -5.556712 -14.385613 -10.151536 -0.415833 -3.417246 3.129192 0.269220 -0.201910 0.237000 0.051650 13.399173 14.372642 7.843960 58.517328 5.467936 -3.093375 0.707795 11.838700 -0.560094 2.666654 -1.492214 0.193450 -0.142140 -0.366080 -0.105580 
-0.739000 17.139670 -0.880590 -179.597296 28.178118 179.258801 -14.846975 11.447822 4.128367 7.020750 -6.011402 -23.510063 -21.974629 15.904930 34.087041 0.873081 8.227954 1.573743 0.591530 0.321330 0.710400 18.628501 -11.507330 2.897142 1.802718 5.470157 -24.196914 -11.888626 -1.436582 50.979143 -0.978676 -6.797906 1.873526 0.063460 -0.354460 0.183700 -4.488232 2.112678 -7.990586 13.210351 0.745406 10.974054 -4.177860 1.959197 2.999839 3.829688 10.578887 -13.508779 21.042574 -27.920700 33.992208 -2.402720 -20.628230 -4.887190 -22.494095 -17.925247 7.753475 -55.345779 -2.550131 -5.604908 -13.557609 -9.293356 -0.502681 -3.404552 3.131620 0.272020 -0.215220 0.252540 0.048040 13.573865 14.318208 7.939905 59.191990 4.705190 -3.362650 0.949105 11.123952 -0.491111 2.683065 -1.492248 0.208240 -0.157080 -0.375610 -0.105380 
-0.761670 17.139770 -0.904200 -179.299113 26.200695 179.517088 -14.832291 11.475231 3.991123 6.949998 -5.605864 -22.127085 -22.319373 15.410089 32.170131 0.823490 7.916269 1.674677 0.602450 0.333020 0.724840 18.647017 -11.445635 3.022619 1.823137 6.025262 -25.784910 -12.453556 -1.280108 53.307504 -1.067126 -7.153730 1.751469 0.063870 -0.372710 0.189980 -4.512393 2.081415 -8.016005 13.592048 0.427547 11.025121 -4.467165 1.706384 2.730220 3.932944 10.769370 -13.596976 21.704456 -28.471576 33.672284 -2.481080 -20.827530 -5.094460 -22.773437 -17.987506 7.788678 -55.462351 -2.242165 -5.688668 -12.937320 -8.635354 -0.570958 -3.398073 3.130405 0.278040 -0.223240 0.267940 0.046520 13.560931 14.196262 7.998471 60.022622 4.122577 -3.605185 1.213880 10.500778 -0.437752 2.691740 -1.492864 0.218870 -0.166570 -0.384810 -0.108350 
